<svg width="181" height="147" viewBox="0 0 181 147" fill="none" xmlns="http://www.w3.org/2000/svg">
<path opacity="0.16" d="M73 95.4585C73 89.5023 75.3705 83.7898 79.5893 79.5779C83.8085 75.3664 89.5308 73 95.4974 73H140.492C146.458 73 152.18 75.3664 156.4 79.5779C160.619 83.7898 162.989 89.5023 162.989 95.4585C162.989 98.4365 161.804 101.293 159.694 103.399C157.585 105.504 154.724 106.687 151.74 106.687H84.2487C81.2653 106.687 78.4042 105.504 76.2948 103.399C74.1854 101.293 73 98.4365 73 95.4585Z" fill="#2563EB"/>
<path d="M68.5139 101.063C68.5139 95.1065 70.8844 89.394 75.1032 85.1822C79.3224 80.9706 85.0447 78.6042 91.0113 78.6042H136.005C141.972 78.6042 147.694 80.9706 151.913 85.1822C156.133 89.394 158.503 95.1065 158.503 101.063C158.503 104.041 157.318 106.897 155.208 109.003C153.099 111.109 150.238 112.292 147.254 112.292H79.7626C76.7792 112.292 73.9182 111.109 71.8087 109.003C69.6993 106.897 68.5139 104.041 68.5139 101.063Z" stroke="#2563EB" stroke-width="5" stroke-linejoin="round"/>
<path d="M113.508 56.1461C122.827 56.1461 130.381 48.6047 130.381 39.3023C130.381 29.9997 122.827 22.4585 113.508 22.4585C104.19 22.4585 96.6355 29.9997 96.6355 39.3023C96.6355 48.6047 104.19 56.1461 113.508 56.1461Z" stroke="#2563EB" stroke-width="5"/>
<path opacity="0.16" d="M27 106.969C27 100.877 29.3702 95.0348 33.5893 90.7274C37.8083 86.42 43.5307 84 49.4973 84H94.4914C100.458 84 106.18 86.42 110.399 90.7274C114.619 95.0348 116.989 100.877 116.989 106.969C116.989 110.015 115.804 112.936 113.694 115.089C111.585 117.243 108.724 118.453 105.74 118.453H38.2486C35.2651 118.453 32.4042 117.243 30.2947 115.089C28.1851 112.936 27 110.015 27 106.969Z" fill="#F97316"/>
<path d="M22.4973 112.547C22.4973 106.455 24.8676 100.613 29.0866 96.3055C33.3057 91.9981 39.028 89.5781 44.9946 89.5781H89.9887C95.9556 89.5781 101.678 91.9981 105.897 96.3055C110.116 100.613 112.486 106.455 112.486 112.547C112.486 115.593 111.301 118.514 109.191 120.667C107.082 122.821 104.221 124.031 101.237 124.031H33.7459C30.7624 124.031 27.9015 122.821 25.792 120.667C23.6824 118.514 22.4973 115.593 22.4973 112.547Z" stroke="#F97316" stroke-width="5" stroke-linejoin="round"/>
<path d="M67.4915 66.6094C76.8103 66.6094 84.3644 58.8968 84.3644 49.3828C84.3644 39.8688 76.8103 32.1562 67.4915 32.1562C58.1728 32.1562 50.6187 39.8688 50.6187 49.3828C50.6187 58.8968 58.1728 66.6094 67.4915 66.6094Z" stroke="#F97316" stroke-width="5"/>
</svg>
